HIERARCHY
ROOT root
{
	OFFSET 0.000000 0.000000 0.000000
	CHANNELS 6 Xposition Yposition Zposition Zrotation Yrotation Xrotation
	JOINT lhip
	{
		OFFSET 0.058581 -0.082280 -0.017664
		CHANNELS 3 Zrotation Yrotation Xrotation
		JOINT lknee
		{
			OFFSET 0.043451 -0.386469 0.008037
			CHANNELS 3 Zrotation Yrotation Xrotation
			JOINT lankle
			{
				OFFSET -0.014790 -0.426874 -0.037428
				CHANNELS 3 Zrotation Yrotation Xrotation
				JOINT ltoe
				{
					OFFSET 0.041054 -0.060286 0.122042
					CHANNELS 3 Zrotation Yrotation Xrotation
					End Site
					{
						OFFSET 0.000000 0.000000 0.000000
					}
				}
			}
		}
	}
	JOINT rhip
	{
		OFFSET -0.060310 -0.090513 -0.013543
		CHANNELS 3 Zrotation Yrotation Xrotation
		JOINT rknee
		{
			OFFSET -0.043257 -0.383688 -0.004843
			CHANNELS 3 Zrotation Yrotation Xrotation
			JOINT rankle
			{
				OFFSET 0.019056 -0.420046 -0.034562
				CHANNELS 3 Zrotation Yrotation Xrotation
				JOINT rtoe
				{
					OFFSET -0.034840 -0.062106 0.130323
					CHANNELS 3 Zrotation Yrotation Xrotation
					End Site
					{
						OFFSET 0.000000 0.000000 0.000000
					}
				}
			}
		}
	}
	JOINT lowerback
	{
		OFFSET 0.004439 0.124404 -0.038385
		CHANNELS 3 Zrotation Yrotation Xrotation
		JOINT upperback
		{
			OFFSET 0.004488 0.137956 0.026820
			CHANNELS 3 Zrotation Yrotation Xrotation
			JOINT chest
			{
				OFFSET -0.002265 0.056032 0.002855
				CHANNELS 3 Zrotation Yrotation Xrotation
				JOINT lowerneck
				{
					OFFSET -0.013390 0.211636 -0.033468
					CHANNELS 3 Zrotation Yrotation Xrotation
					JOINT upperneck
					{
						OFFSET 0.010113 0.088937 0.050410
						CHANNELS 3 Zrotation Yrotation Xrotation
						End Site
						{
							OFFSET 0.000000 0.000000 0.000000
						}
					}
				}
				JOINT lclavicle
				{
					OFFSET 0.071702 0.114000 -0.018898
					CHANNELS 3 Zrotation Yrotation Xrotation
					JOINT lshoulder
					{
						OFFSET 0.122921 0.045205 -0.019046
						CHANNELS 3 Zrotation Yrotation Xrotation
						JOINT lelbow
						{
							OFFSET 0.255332 -0.015649 -0.022946
							CHANNELS 3 Zrotation Yrotation Xrotation
							JOINT lwrist
							{
								OFFSET 0.265709 0.012698 -0.007375
								CHANNELS 3 Zrotation Yrotation Xrotation
								End Site
								{
									OFFSET 0.000000 0.000000 0.000000
								}
							}
						}
					}
				}
				JOINT rclavicle
				{
					OFFSET -0.082954 0.112472 -0.023707
					CHANNELS 3 Zrotation Yrotation Xrotation
					JOINT rshoulder
					{
						OFFSET -0.113228 0.046853 -0.008472
						CHANNELS 3 Zrotation Yrotation Xrotation
						JOINT relbow
						{
							OFFSET -0.260127 -0.014369 -0.031269
							CHANNELS 3 Zrotation Yrotation Xrotation
							JOINT rwrist
							{
								OFFSET -0.269108 0.006794 -0.006027
								CHANNELS 3 Zrotation Yrotation Xrotation
								End Site
								{
									OFFSET 0.000000 0.000000 0.000000
								}
							}
						}
					}
				}
			}
		}
	}
}
MOTION
Frames: 5
Frame Time: 0.033333
0.222753 -0.298418 0.994951 -2.775696 3.026649 90.719491 1.617801 1.618784 -6.321794 -5.261582 -7.002702 9.931861 2.506210 13.919686 -21.281447 0.000000 -0.000000 0.000000 -2.204816 1.796269 -24.097633 3.616852 -9.390774 34.994837 7.470623 -9.227620 -18.210057 0.000000 -0.000000 0.000000 -2.145084 -0.699368 15.048066 2.307569 1.449455 -7.094910 1.688396 -0.688327 1.973768 6.292530 6.234993 -13.992309 -1.468981 -4.447804 7.536771 -25.875018 2.037565 -1.749226 -43.126996 -3.828097 3.866355 14.227668 -14.779357 -9.301354 -0.565357 -3.858403 3.295081 26.125500 2.502313 -4.652727 46.098406 10.034077 9.655234 -14.285221 23.321884 -18.527463 17.205851 2.720891 -22.953656 
0.222256 -0.301513 0.995713 -3.023292 3.275255 91.050936 1.753086 1.574777 -6.262659 -5.016128 -7.141553 9.632955 2.579231 14.404918 -21.124481 0.000000 -0.000000 0.000000 -1.603975 3.044929 -24.996637 3.893080 -6.205465 29.301413 6.756699 -8.571834 -18.207110 0.000000 -0.000000 0.000000 -1.694830 -0.908243 15.103205 2.137552 1.418635 -7.420136 1.927130 -0.840407 1.959326 5.611133 6.391187 -13.889560 -1.407567 -3.768379 6.962376 -25.916809 1.805178 -1.676927 -43.619181 -4.875169 3.485350 13.901583 -12.647666 -10.251478 6.226040 -6.072932 3.143395 26.001513 3.065337 -3.813147 45.935578 9.944863 11.524439 -10.930494 23.747767 -11.444165 7.453082 3.663449 -16.313098 
0.221335 -0.306837 0.995708 -3.201950 3.168487 91.401583 1.596657 1.537651 -5.845294 -4.754591 -7.335402 8.923966 2.724103 14.811665 -20.748921 0.000000 -0.000000 0.000000 -1.381787 3.451526 -25.305045 4.269256 -2.461429 23.026772 6.953726 -6.606164 -16.981449 0.000000 -0.000000 0.000000 -1.465121 -0.987302 14.594076 1.917058 1.271197 -7.329805 2.009610 -0.969528 1.707134 5.175956 6.198793 -13.181903 -1.038674 -3.173989 6.396728 -25.851453 1.527366 -1.493297 -44.020011 -5.686373 3.595541 12.989349 -11.580817 -10.735555 11.003745 -6.986897 2.672711 26.074770 3.522776 -2.838767 45.619701 10.147907 12.968100 -7.827784 23.533139 -5.455841 0.452310 4.641055 -9.835875 
0.218559 -0.317650 0.993256 -3.180401 2.623260 91.392297 1.201849 1.445887 -3.910994 -4.449197 -7.529164 6.664731 3.481401 15.055614 -19.480736 0.000000 -0.000000 0.000000 -1.463996 2.427841 -24.106996 5.232707 0.436989 18.738743 7.892044 -3.003863 -5.570811 0.000000 -0.000000 0.000000 -1.390295 -0.863255 13.648518 1.467415 0.836062 -6.880116 1.927628 -1.256252 0.908844 4.629128 5.341818 -11.074125 -0.272477 -2.467387 5.921108 -25.693976 0.584370 -0.912545 -44.762662 -6.592340 4.184079 11.537366 -11.635814 -9.989070 14.127334 -7.910798 2.371794 25.996475 4.187524 -1.794944 46.109076 10.729528 14.358273 -4.722197 22.501878 0.676959 -5.733769 5.631183 -2.249342 
0.217213 -0.322082 0.992040 -3.196892 2.324171 91.193127 1.015183 1.666426 -2.852621 -4.323929 -7.608546 5.752382 3.385550 14.842133 -19.368857 0.000000 -0.000000 0.000000 -1.561504 1.861294 -23.014449 5.113255 0.312048 17.839894 7.849930 -2.464455 -6.449036 0.000000 -0.000000 0.000000 -1.449048 -0.765121 13.409980 1.224644 0.693668 -6.812108 1.801099 -1.239936 0.703871 4.713407 5.415280 -10.502275 -0.260263 -2.721296 6.267288 -25.658285 0.165420 -0.900379 -44.832329 -6.770812 4.546172 11.018600 -12.163632 -9.351021 13.871352 -8.055171 2.225403 26.010202 4.492931 -1.647132 46.452276 10.811929 14.394250 -4.510834 22.322941 1.167545 -5.864626 5.628161 -1.893845 
